<svg width="20" height="20" viewBox="0 0 20 20" fill="none" xmlns="http://www.w3.org/2000/svg">
<path d="M18.5021 3.44824H1.49785C0.670586 3.44824 0 4.11883 0 4.94609V15.0539C0 15.8811 0.670586 16.5518 1.49785 16.5518H18.5021C19.3294 16.5518 20 15.8812 20 15.0539V4.94609C20 4.11883 19.3294 3.44824 18.5021 3.44824Z" fill="#41479B"/>
<path d="M0.344844 9.99997H0.943828L4.13797 7.90723V9.99997H5.86211V7.90723L9.05621 9.99997H9.6552C9.84562 9.99997 10 9.84555 10 9.65512V9.38161L7.25961 7.58617H10V5.86203H7.25957L10 4.0666V3.79309C10 3.60262 9.84559 3.44824 9.65516 3.44824H9.05617L5.86203 5.54098V3.44824H4.13789V5.54098L1.04859 3.51691C0.687891 3.6302 0.386328 3.87641 0.200508 4.19793L2.74047 5.86203H0V7.58617H2.74043L0 9.38161V9.65512C0 9.84555 0.154336 9.99997 0.344844 9.99997Z" fill="#F5F5F5"/>
<path d="M10 6.20688H5.51723V3.44824H4.48277V6.20688H0V7.24133H4.48277V9.99997H5.51723V7.24133H10V6.20688Z" fill="#FF4B55"/>
<path d="M0.322266 4.0196L3.16063 5.86206H3.79399L0.571485 3.77026C0.478945 3.84331 0.395313 3.92702 0.322266 4.0196Z" fill="#FF4B55"/>
<path d="M6.49469 5.86203L9.9468 3.62117C9.8868 3.51965 9.78094 3.44824 9.65441 3.44824H9.57981L5.86133 5.86203H6.49469Z" fill="#FF4B55"/>
<path d="M3.49434 7.58618L0.0488281 9.82274C0.108242 9.92673 0.215742 9.99997 0.344102 9.99997H0.409141L4.12774 7.58618H3.49434Z" fill="#FF4B55"/>
<path d="M9.99531 9.6822L6.76617 7.58618H6.13281L9.79977 9.96645C9.90961 9.91548 9.98496 9.80864 9.99531 9.6822Z" fill="#FF4B55"/>
<path d="M5.10346 11.8799L5.36373 12.7392L6.19783 12.407C6.269 12.3786 6.33369 12.4598 6.29025 12.5228L5.78072 13.262L6.56049 13.707C6.62701 13.745 6.60392 13.8461 6.52752 13.8515L5.63185 13.914L5.77017 14.8011C5.78197 14.8768 5.68846 14.9218 5.63666 14.8654L5.02932 14.2042L4.42197 14.8654C4.37017 14.9218 4.27666 14.8768 4.28846 14.8011L4.42678 13.914L3.53111 13.8515C3.45471 13.8461 3.43158 13.745 3.49814 13.707L4.27791 13.262L3.76838 12.5228C3.72494 12.4598 3.78963 12.3786 3.8608 12.407L4.6949 12.7392L4.95517 11.8799C4.97748 11.8066 5.08127 11.8066 5.10346 11.8799Z" fill="#F5F5F5"/>
<path d="M15.362 5.77055L15.4892 6.19027L15.8966 6.02801C15.9313 6.01418 15.9629 6.05379 15.9417 6.08461L15.6928 6.44574L16.0737 6.66312C16.1062 6.68164 16.0949 6.73109 16.0576 6.73367L15.6201 6.76421L15.6876 7.19753C15.6934 7.23453 15.6477 7.25652 15.6224 7.22894L15.3257 6.90593L15.029 7.22894C15.0037 7.25648 14.9581 7.23449 14.9638 7.19753L15.0313 6.76421L14.5938 6.73367C14.5565 6.73105 14.5452 6.68164 14.5777 6.66312L14.9586 6.44574L14.7097 6.08461C14.6885 6.05379 14.7201 6.01418 14.7549 6.02801L15.1623 6.19027L15.2895 5.77055C15.3004 5.73469 15.3512 5.73469 15.362 5.77055Z" fill="#F5F5F5"/>
<path d="M12.526 8.9922L12.6531 9.41192L13.0606 9.24966C13.0953 9.23583 13.1269 9.27544 13.1057 9.30626L12.8568 9.66739L13.2377 9.88478C13.2702 9.90329 13.2589 9.95274 13.2216 9.95532L12.7841 9.98587L12.8517 10.4192C12.8574 10.4562 12.8117 10.4782 12.7864 10.4506L12.4897 10.1276L12.1931 10.4506C12.1678 10.4781 12.1221 10.4561 12.1278 10.4192L12.1954 9.98587L11.7579 9.95532C11.7206 9.9527 11.7093 9.90329 11.7418 9.88478L12.1227 9.66739L11.8738 9.30626C11.8526 9.27544 11.8842 9.23583 11.9189 9.24966L12.3264 9.41192L12.4535 8.9922C12.4644 8.95638 12.5151 8.95638 12.526 8.9922Z" fill="#F5F5F5"/>
<path d="M18.0435 7.61277L18.1706 8.0325L18.5781 7.87023C18.6128 7.85641 18.6445 7.89602 18.6232 7.92684L18.3743 8.28797L18.7552 8.50535C18.7877 8.52387 18.7765 8.57332 18.7391 8.5759L18.3016 8.60644L18.3692 9.03976C18.375 9.07676 18.3293 9.09875 18.304 9.07117L18.0073 8.74816L17.7106 9.07117C17.6853 9.09871 17.6396 9.07672 17.6454 9.03976L17.713 8.60644L17.2755 8.5759C17.2381 8.57328 17.2269 8.52387 17.2594 8.50535L17.6402 8.28797L17.3914 7.92684C17.3701 7.89602 17.4018 7.85641 17.4365 7.87023L17.844 8.0325L17.9711 7.61277C17.9819 7.57699 18.0326 7.57699 18.0435 7.61277Z" fill="#F5F5F5"/>
<path d="M15.362 13.1301L15.4892 13.5498L15.8966 13.3875C15.9313 13.3737 15.9629 13.4133 15.9417 13.4441L15.6928 13.8053L16.0737 14.0226C16.1062 14.0412 16.0949 14.0906 16.0576 14.0932L15.6201 14.1237L15.6876 14.557C15.6934 14.594 15.6477 14.616 15.6224 14.5885L15.3257 14.2654L15.029 14.5885C15.0037 14.616 14.9581 14.594 14.9638 14.557L15.0313 14.1237L14.5938 14.0932C14.5565 14.0906 14.5452 14.0412 14.5777 14.0226L14.9586 13.8053L14.7097 13.4441C14.6885 13.4133 14.7201 13.3737 14.7549 13.3875L15.1623 13.5498L15.2895 13.1301C15.3004 13.0943 15.3512 13.0943 15.362 13.1301Z" fill="#F5F5F5"/>
<path d="M16.3449 9.7465L16.2428 10.0526L15.9202 10.0551C15.8784 10.0555 15.8611 10.1087 15.8947 10.1335L16.1542 10.3252L16.0569 10.6328C16.0443 10.6727 16.0897 10.7056 16.1236 10.6813L16.3861 10.4937L16.6486 10.6813C16.6826 10.7056 16.7279 10.6726 16.7153 10.6328L16.618 10.3252L16.8775 10.1335C16.9112 10.1087 16.8938 10.0555 16.8521 10.0551L16.5295 10.0526L16.4274 9.7465C16.4141 9.70689 16.3581 9.70689 16.3449 9.7465Z" fill="#F5F5F5"/>
</svg>
