<svg width="81" height="80" viewBox="0 0 81 80" fill="none" xmlns="http://www.w3.org/2000/svg">
<circle cx="40.5273" cy="40" r="40" fill="url(#paint0_linear_1_9283)"/>
<path d="M40.3873 52.1766C41.2264 47.9861 40.6104 43.9602 40.4139 40.115C40.4032 40.115 40.3979 40.1203 40.3926 40.1256C40.3979 40.1203 40.4032 40.115 40.4032 40.1044C36.5529 39.9981 32.5167 39.483 28.3477 40.4177C23.0422 41.6127 19.0485 46.0316 19.1281 51.5074C19.1706 54.3063 20.3868 56.7919 22.3093 58.6402C24.2 60.515 26.7173 61.6782 29.5161 61.6516C34.9968 61.6038 39.3198 57.5142 40.3873 52.1766Z" fill="white"/>
<path d="M40.6203 27.8146C39.8024 32.0104 40.4397 36.031 40.6521 39.8762C40.6628 39.8762 40.6681 39.8709 40.6734 39.8656C40.6681 39.8709 40.6628 39.8762 40.6628 39.8868C44.5131 39.9718 48.5493 40.4711 52.7183 39.5151C58.0185 38.2935 61.991 33.8587 61.8848 28.3776C61.8317 25.5786 60.5996 23.0983 58.6664 21.2607C56.7651 19.3912 54.2425 18.244 51.4437 18.2812C45.9683 18.3608 41.6612 22.4716 40.6203 27.8146Z" fill="white"/>
<path d="M26.8665 35.3248C30.2176 35.9781 33.4254 35.4682 36.5003 35.293C36.5003 35.2823 36.495 35.277 36.495 35.277C36.5003 35.2823 36.5003 35.2876 36.511 35.2876C36.5747 32.2125 36.973 28.9886 36.2082 25.6586C35.2257 21.4256 31.6834 18.2549 27.3073 18.3451C25.0715 18.3876 23.0905 19.3755 21.6247 20.9157C20.1324 22.4347 19.2189 24.4529 19.2508 26.6836C19.3145 31.06 22.6019 34.4963 26.8665 35.3248Z" fill="#E5E5E5"/>
<path d="M54.0626 44.6988C50.7115 44.0455 47.5037 44.5554 44.4288 44.7307C44.4288 44.7413 44.4341 44.7466 44.4341 44.7466C44.4288 44.7413 44.4288 44.736 44.4181 44.736C44.3544 47.8111 43.9561 51.035 44.7209 54.365C45.698 58.598 49.2457 61.7688 53.6165 61.6785C55.8523 61.636 57.8333 60.6481 59.299 59.1079C60.7914 57.5889 61.7048 55.5707 61.673 53.34C61.6146 48.9689 58.3272 45.5326 54.0626 44.6988Z" fill="#E5E5E5"/>
<path d="M40.3873 52.1766C41.2264 47.9861 40.6104 43.9602 40.4139 40.115C40.4032 40.115 40.3979 40.1203 40.3926 40.1256C40.3979 40.1203 40.4032 40.115 40.4032 40.1044C36.5529 39.9981 32.5167 39.483 28.3477 40.4177C23.0422 41.6127 19.0485 46.0316 19.1281 51.5074C19.1706 54.3063 20.3868 56.7919 22.3093 58.6402C24.2 60.515 26.7173 61.6782 29.5161 61.6516C34.9968 61.6038 39.3198 57.5142 40.3873 52.1766Z" fill="white"/>
<path d="M40.6203 27.8146C39.8024 32.0104 40.4397 36.031 40.6521 39.8762C40.6628 39.8762 40.6681 39.8709 40.6734 39.8656C40.6681 39.8709 40.6628 39.8762 40.6628 39.8868C44.5131 39.9718 48.5493 40.4711 52.7183 39.5151C58.0185 38.2935 61.991 33.8587 61.8848 28.3776C61.8317 25.5786 60.5996 23.0983 58.6664 21.2607C56.7651 19.3912 54.2425 18.244 51.4437 18.2812C45.9683 18.3608 41.6612 22.4716 40.6203 27.8146Z" fill="white"/>
<path d="M26.8665 35.3248C30.2176 35.9781 33.4254 35.4682 36.5003 35.293C36.5003 35.2823 36.495 35.277 36.495 35.277C36.5003 35.2823 36.5003 35.2876 36.511 35.2876C36.5747 32.2125 36.973 28.9886 36.2082 25.6586C35.2257 21.4256 31.6834 18.2549 27.3073 18.3451C25.0715 18.3876 23.0905 19.3755 21.6247 20.9157C20.1324 22.4347 19.2189 24.4529 19.2508 26.6836C19.3145 31.06 22.6019 34.4963 26.8665 35.3248Z" fill="#E5E5E5"/>
<path d="M54.0626 44.6988C50.7115 44.0455 47.5037 44.5554 44.4288 44.7307C44.4288 44.7413 44.4341 44.7466 44.4341 44.7466C44.4288 44.7413 44.4288 44.736 44.4181 44.736C44.3544 47.8111 43.9561 51.035 44.7209 54.365C45.698 58.598 49.2457 61.7688 53.6165 61.6785C55.8523 61.636 57.8333 60.6481 59.299 59.1079C60.7914 57.5889 61.7048 55.5707 61.673 53.34C61.6146 48.9689 58.3272 45.5326 54.0626 44.6988Z" fill="#E5E5E5"/>
<defs>
<linearGradient id="paint0_linear_1_9283" x1="40.5273" y1="0" x2="40.5273" y2="80" gradientUnits="userSpaceOnUse">
<stop stop-color="#0457A2"/>
<stop offset="1" stop-color="#636363"/>
</linearGradient>
</defs>
</svg>
