<svg width="21" height="17" viewBox="0 0 21 17" fill="none" xmlns="http://www.w3.org/2000/svg">
<path d="M12.3335 9.76409C12.1143 9.93947 11.8499 10.0801 11.5562 10.1777C11.2624 10.2753 10.9454 10.3277 10.6238 10.3319C10.3023 10.3362 9.98296 10.2921 9.68479 10.2023C9.38663 10.1125 9.11578 9.9789 8.8884 9.8094C8.66102 9.6399 8.48176 9.438 8.36133 9.21573C8.2409 8.99347 8.18175 8.7554 8.18742 8.51573C8.1931 8.27605 8.26347 8.03969 8.39435 7.82073C8.52522 7.60177 8.71392 7.40471 8.94918 7.24129M15.3825 12.037C14.0181 12.8123 12.3567 13.2418 10.6413 13.2627C5.05406 13.2627 1.86133 8.50269 1.86133 8.50269C2.85418 7.12342 4.23124 5.91837 5.90013 4.96839L15.3825 12.037ZM8.96515 3.88549C9.51456 3.78962 10.0771 3.7417 10.6413 3.74269C16.2286 3.74269 19.4213 8.50269 19.4213 8.50269C18.9368 9.17838 18.359 9.81451 17.6973 10.4007L8.96515 3.88549Z" stroke="#718096" stroke-width="2" stroke-linecap="round" stroke-linejoin="round"/>
<path d="M1.86133 1.95752L19.4213 15.0475" stroke="#718096" stroke-width="2" stroke-linecap="round" stroke-linejoin="round"/>
</svg>
