<svg width="60" height="66" viewBox="0 0 60 66" fill="none" xmlns="http://www.w3.org/2000/svg">
<path d="M55.5264 23.6079H53.9418V15.9604C53.9418 15.9124 53.9341 15.8647 53.9279 15.8159C53.9253 15.5126 53.8287 15.2141 53.6208 14.9781L40.8957 0.442615C40.8919 0.438523 40.888 0.437319 40.8854 0.433587C40.8097 0.348483 40.7212 0.278064 40.6277 0.217395C40.5999 0.198497 40.5721 0.182969 40.543 0.166959C40.4621 0.123022 40.3761 0.0860674 40.2877 0.0594648C40.2637 0.0532053 40.2423 0.0433347 40.2183 0.0368345C40.122 0.0142041 40.0222 0 39.9214 0H8.64751C7.21939 0 6.05934 1.16149 6.05934 2.58828V23.6072H4.47485C2.43186 23.6072 0.775391 25.263 0.775391 27.3062V46.5432C0.775391 48.5855 2.43186 50.243 4.47485 50.243H6.05934V63.4118C6.05934 64.8387 7.21939 66 8.64751 66H51.3535C52.7803 66 53.9418 64.8387 53.9418 63.4118V50.2432H55.5264C57.5687 50.2432 59.2254 48.5863 59.2254 46.5439V27.307C59.2255 25.2631 57.5687 23.6079 55.5264 23.6079ZM8.64751 2.58828H38.6271V15.8301C38.6271 16.5452 39.2071 17.1243 39.9212 17.1243H51.3535V23.6078H8.64751V2.58828ZM28.1314 37.6987C24.9198 36.5803 22.8274 34.8034 22.8274 31.9943C22.8274 28.6956 25.5792 26.1721 30.1381 26.1721C32.3177 26.1721 33.9235 26.6308 35.0695 27.148L34.0957 30.6749C33.3217 30.3009 31.9456 29.7562 30.0523 29.7562C28.1604 29.7562 27.2429 30.6168 27.2429 31.6202C27.2429 32.8537 28.332 33.398 30.8277 34.3445C34.2392 35.6059 35.845 37.3826 35.845 40.1073C35.845 43.3464 33.3507 46.1002 28.0457 46.1002C25.8383 46.1002 23.6582 45.5253 22.569 44.9242L23.4574 41.311C24.6337 41.9146 26.4397 42.5155 28.3041 42.5155C30.3109 42.5155 31.3722 41.684 31.3722 40.4215C31.3716 39.2165 30.4536 38.5291 28.1314 37.6987ZM5.36334 36.4363C5.36334 29.842 10.0668 26.1721 15.9146 26.1721C18.1803 26.1721 19.9006 26.6308 20.6753 27.0326L19.7855 30.5013C18.8971 30.1301 17.6631 29.7864 16.1152 29.7864C12.6457 29.7864 9.95128 31.8779 9.95128 36.1782C9.95128 40.0492 12.2445 42.4858 16.1453 42.4858C17.463 42.4858 18.9255 42.1995 19.7855 41.8553L20.4455 45.2674C19.6424 45.6694 17.8365 46.1002 15.4851 46.1002C8.80436 46.1004 5.36334 41.9412 5.36334 36.4363ZM51.3535 62.7103H8.64751V50.2432H51.3535V62.7103ZM48.4626 45.8123H43.3589L37.1656 26.4879H41.955L44.3054 34.6606C44.9649 36.9533 45.5668 39.1609 46.0266 41.5697H46.112C46.5992 39.2467 47.2007 36.9531 47.8605 34.7454L50.3266 26.4879H54.973L48.4626 45.8123Z" fill="#718096"/>
</svg>
