<svg width="36" height="36" viewBox="0 0 36 36" fill="none" xmlns="http://www.w3.org/2000/svg">
<circle cx="18" cy="18" r="18" fill="#FFEEE6"/>
<path d="M28 28.375V26C28 24.7402 27.4996 23.532 26.6088 22.6412C25.718 21.7504 24.5098 21.25 23.25 21.25H13.75C12.4902 21.25 11.282 21.7504 10.3912 22.6412C9.50044 23.532 9 24.7402 9 26V28.375" fill="#C2A68E"/>
<path d="M28 28.375V26C28 24.7402 27.4996 23.532 26.6088 22.6412C25.718 21.7504 24.5098 21.25 23.25 21.25H13.75C12.4902 21.25 11.282 21.7504 10.3912 22.6412C9.50044 23.532 9 24.7402 9 26V28.375" stroke="#C2A68E" stroke-width="2" stroke-linecap="round" stroke-linejoin="round"/>
<path d="M18.5 16.5C21.1234 16.5 23.25 14.3734 23.25 11.75C23.25 9.12665 21.1234 7 18.5 7C15.8766 7 13.75 9.12665 13.75 11.75C13.75 14.3734 15.8766 16.5 18.5 16.5Z" fill="#C2A68E" stroke="#C2A68E" stroke-width="2" stroke-linecap="round" stroke-linejoin="round"/>
</svg>
