<svg width="14" height="15" viewBox="0 0 14 15" fill="none" xmlns="http://www.w3.org/2000/svg">
<path fill-rule="evenodd" clip-rule="evenodd" d="M4.25 2.5C4.25 1.5335 5.0335 0.75 6 0.75H8C8.9665 0.75 9.75 1.5335 9.75 2.5V3.25H11.5H13C13.4142 3.25 13.75 3.58579 13.75 4C13.75 4.41421 13.4142 4.75 13 4.75H12.2134L11.8441 12.1373C11.7709 13.6009 10.5629 14.75 9.0975 14.75H4.9025C3.43709 14.75 2.22911 13.6009 2.15593 12.1373L1.78656 4.75H1C0.585786 4.75 0.25 4.41421 0.25 4C0.25 3.58579 0.585786 3.25 1 3.25H2.5H4.25V2.5ZM5.75 3.25H8.25V2.5C8.25 2.36193 8.13807 2.25 8 2.25H6C5.86193 2.25 5.75 2.36193 5.75 2.5V3.25ZM5.99906 6.46255C5.97838 6.04885 5.62624 5.73025 5.21255 5.75094C4.79885 5.77162 4.48025 6.12376 4.50094 6.53745L4.75094 11.5375C4.77162 11.9511 5.12376 12.2697 5.53745 12.2491C5.95115 12.2284 6.26975 11.8762 6.24906 11.4625L5.99906 6.46255ZM9.49906 6.53745C9.51975 6.12376 9.20115 5.77162 8.78745 5.75094C8.37376 5.73025 8.02162 6.04885 8.00094 6.46255L7.75094 11.4625C7.73025 11.8762 8.04885 12.2284 8.46255 12.2491C8.87624 12.2697 9.22838 11.9511 9.24906 11.5375L9.49906 6.53745Z" fill="#C53030"/>
</svg>
