<svg width="292" height="262" viewBox="0 0 292 262" fill="none" xmlns="http://www.w3.org/2000/svg">
<g clip-path="url(#clip0_1_8723)" filter="url(#filter0_d_1_8723)">
<path d="M285.509 97.1347C285.408 97.1348 285.308 97.1038 285.225 97.0458L147.431 1.43566C147.011 1.14605 146.513 0.991282 146.003 0.992149C145.493 0.993016 144.995 1.14948 144.576 1.4405L7.77474 97.0448C7.66654 97.1204 7.53262 97.1501 7.40244 97.1274C7.27226 97.1046 7.15649 97.0312 7.08059 96.9234C7.0047 96.8156 6.97489 96.6822 6.99774 96.5525C7.02058 96.4228 7.09421 96.3075 7.20242 96.2318L144.004 0.627538C144.59 0.22016 145.287 0.00117432 146.001 4.70972e-06C146.716 -0.0011649 147.413 0.215535 148 0.620993L285.794 96.2309C285.881 96.2913 285.947 96.3778 285.981 96.4779C286.015 96.5779 286.017 96.6863 285.985 96.7871C285.953 96.8879 285.89 96.976 285.804 97.0386C285.719 97.1011 285.615 97.1348 285.509 97.1347L285.509 97.1347Z" fill="#3F3D56"/>
<path d="M15.5918 100.524L146.138 4.12964L277.675 107.383L152.864 181.099L85.1031 165.711L15.5918 100.524Z" fill="#E6E6E6"/>
<path d="M90.8225 226.631H26.3294C25.9334 226.632 25.5412 226.554 25.1752 226.404C24.8092 226.253 24.4766 226.032 24.1964 225.753C23.9162 225.474 23.6939 225.143 23.5422 224.779C23.3906 224.414 23.3125 224.024 23.3125 223.629C23.3125 223.235 23.3906 222.844 23.5422 222.479C23.6939 222.115 23.9162 221.784 24.1964 221.505C24.4766 221.226 24.8092 221.005 25.1752 220.855C25.5412 220.704 25.9334 220.627 26.3294 220.627H90.8225C91.2185 220.627 91.6107 220.704 91.9768 220.855C92.3428 221.005 92.6754 221.226 92.9556 221.505C93.2358 221.784 93.4581 222.115 93.6097 222.479C93.7614 222.844 93.8395 223.235 93.8395 223.629C93.8395 224.024 93.7614 224.414 93.6097 224.779C93.4581 225.143 93.2358 225.474 92.9556 225.753C92.6754 226.032 92.3428 226.253 91.9768 226.404C91.6107 226.554 91.2185 226.632 90.8225 226.631Z" fill="#3C366B"/>
<path d="M49.4681 213.724H26.3294C25.9334 213.725 25.5412 213.648 25.1752 213.497C24.8092 213.346 24.4766 213.125 24.1964 212.847C23.9162 212.568 23.6939 212.237 23.5422 211.872C23.3906 211.508 23.3125 211.117 23.3125 210.723C23.3125 210.328 23.3906 209.937 23.5422 209.573C23.6939 209.208 23.9162 208.877 24.1964 208.598C24.4766 208.32 24.8092 208.099 25.1752 207.948C25.5412 207.797 25.9334 207.72 26.3294 207.721H49.4681C49.8641 207.72 50.2564 207.797 50.6224 207.948C50.9884 208.099 51.321 208.32 51.6012 208.598C51.8814 208.877 52.1037 209.208 52.2554 209.573C52.407 209.937 52.4851 210.328 52.4851 210.723C52.4851 211.117 52.407 211.508 52.2554 211.872C52.1037 212.237 51.8814 212.568 51.6012 212.847C51.321 213.125 50.9884 213.346 50.6224 213.497C50.2564 213.648 49.8641 213.725 49.4681 213.724Z" fill="#3C366B"/>
<path d="M147.973 154.214C147.483 154.215 146.997 154.12 146.543 153.935L66.0312 120.651V16.4681C66.0323 15.5469 66.4001 14.6637 67.054 14.0122C67.7078 13.3608 68.5943 12.9944 69.519 12.9933H223.975C224.9 12.9944 225.786 13.3608 226.44 14.0122C227.094 14.6637 227.462 15.5469 227.463 16.4681V120.724L227.312 120.789L149.446 153.919C148.979 154.114 148.478 154.214 147.973 154.214Z" fill="white"/>
<path d="M147.974 154.462C147.451 154.463 146.933 154.362 146.449 154.165L65.7832 120.817V16.4682C65.7843 15.4811 66.1784 14.5348 66.8789 13.8368C67.5795 13.1388 68.5293 12.7462 69.52 12.7451H223.976C224.967 12.7462 225.917 13.1388 226.617 13.8368C227.318 14.5348 227.712 15.4811 227.713 16.4682V120.888L149.544 154.147C149.047 154.356 148.513 154.463 147.974 154.462ZM66.7797 120.154L146.829 153.247C147.576 153.549 148.412 153.544 149.155 153.233L226.717 120.233V16.4682C226.716 15.7443 226.427 15.0504 225.913 14.5386C225.399 14.0267 224.703 13.7388 223.976 13.7379H69.5201C68.7935 13.7388 68.097 14.0267 67.5833 14.5386C67.0696 15.0504 66.7806 15.7443 66.7797 16.4682L66.7797 120.154Z" fill="#3F3D56"/>
<path d="M284.512 96.142H284.413L227.214 120.476L148.955 153.77C148.649 153.898 148.321 153.965 147.989 153.967C147.657 153.969 147.328 153.905 147.021 153.78L66.2807 120.406L7.67699 96.1817L7.58747 96.142H7.48772C6.56303 96.143 5.67651 96.5094 5.02266 97.1609C4.36881 97.8123 4.00103 98.6956 4 99.6168V250.525C4.00103 251.446 4.36881 252.33 5.02266 252.981C5.67651 253.633 6.56303 253.999 7.48772 254H284.512C285.437 253.999 286.323 253.633 286.977 252.981C287.631 252.33 287.999 251.446 288 250.525V99.6168C287.999 98.6956 287.631 97.8123 286.977 97.1609C286.323 96.5094 285.437 96.143 284.512 96.142ZM287.004 250.525C287.003 251.183 286.741 251.815 286.274 252.28C285.806 252.745 285.173 253.007 284.512 253.007H7.48772C6.82709 253.007 6.19359 252.745 5.72645 252.28C5.25931 251.815 4.99676 251.183 4.99649 250.525V99.6168C4.99739 98.975 5.24729 98.3583 5.69393 97.8957C6.14056 97.4332 6.74937 97.1605 7.39308 97.1348L66.2807 121.479L146.638 154.698C147.508 155.051 148.482 155.046 149.348 154.683L227.214 121.553L284.612 97.1348C285.255 97.1624 285.862 97.4358 286.307 97.8981C286.753 98.3604 287.002 98.976 287.004 99.6168V250.525Z" fill="#3F3D56"/>
<path d="M147.168 124.672C144.196 124.677 141.302 123.72 138.924 121.943L138.776 121.833L107.73 98.1506C106.292 97.053 105.086 95.684 104.179 94.1218C103.272 92.5595 102.683 90.8346 102.445 89.0456C102.208 87.2565 102.326 85.4383 102.794 83.6948C103.261 81.9513 104.069 80.3167 105.171 78.8842C106.272 77.4516 107.646 76.2494 109.214 75.3459C110.782 74.4425 112.514 73.8556 114.309 73.6188C116.105 73.382 117.93 73.4998 119.68 73.9657C121.43 74.4315 123.07 75.2362 124.508 76.3338L144.618 91.6966L192.139 29.9499C193.241 28.5177 194.616 27.3159 196.184 26.413C197.753 25.5101 199.484 24.9238 201.28 24.6876C203.076 24.4515 204.9 24.57 206.65 25.0365C208.4 25.503 210.04 26.3084 211.478 27.4065L211.182 27.8062L211.485 27.4123C214.385 29.6325 216.282 32.908 216.761 36.5201C217.239 40.1322 216.26 43.7859 214.038 46.6797L158.141 119.309C156.849 120.982 155.186 122.337 153.283 123.267C151.38 124.197 149.288 124.678 147.168 124.672Z" fill="#04844B"/>
</g>
<defs>
<filter id="filter0_d_1_8723" x="0" y="0" width="292" height="262" filterUnits="userSpaceOnUse" color-interpolation-filters="sRGB">
<feFlood flood-opacity="0" result="BackgroundImageFix"/>
<feColorMatrix in="SourceAlpha" type="matrix" values="0 0 0 0 0 0 0 0 0 0 0 0 0 0 0 0 0 0 127 0" result="hardAlpha"/>
<feOffset dy="4"/>
<feGaussianBlur stdDeviation="2"/>
<feComposite in2="hardAlpha" operator="out"/>
<feColorMatrix type="matrix" values="0 0 0 0 0 0 0 0 0 0 0 0 0 0 0 0 0 0 0.25 0"/>
<feBlend mode="normal" in2="BackgroundImageFix" result="effect1_dropShadow_1_8723"/>
<feBlend mode="normal" in="SourceGraphic" in2="effect1_dropShadow_1_8723" result="shape"/>
</filter>
<clipPath id="clip0_1_8723">
<rect width="284" height="254" fill="white" transform="translate(4)"/>
</clipPath>
</defs>
</svg>
