<svg width="21" height="15" viewBox="0 0 21 15" fill="none" xmlns="http://www.w3.org/2000/svg">
<rect x="0.177734" width="20.4444" height="15" fill="white"/>
<path d="M7.29608 7.93832L12.8495 14.4999H0.677734V0.977849L12.1788 7.1153H7.67773H6.59952L7.29608 7.93832Z" fill="#C51918" stroke="#4857A1"/>
<mask id="mask0_604_953" style="mask-type:luminance" maskUnits="userSpaceOnUse" x="0" y="0" width="15" height="15">
<path d="M7.29608 7.93832L12.8495 14.4999H0.677734V0.977849L12.1788 7.1153H7.67773H6.59952L7.29608 7.93832Z" fill="white" stroke="white"/>
</mask>
<g mask="url(#mask0_604_953)">
<path fill-rule="evenodd" clip-rule="evenodd" d="M3.82125 12.5448L3.05552 13.5233L3.02018 12.2885L1.81655 12.637L2.52508 11.6176L1.3433 11.2029L2.52508 10.7882L1.81655 9.76879L3.02018 10.1173L3.05552 8.88247L3.82125 9.86098L4.58698 8.88247L4.62233 10.1173L5.82596 9.76879L5.11742 10.7882L6.2992 11.2029L5.11742 11.6176L5.82596 12.637L4.62233 12.2885L4.58698 13.5233L3.82125 12.5448Z" fill="#F7FCFF"/>
<path fill-rule="evenodd" clip-rule="evenodd" d="M3.80273 5.23919L3.40284 5.75021L3.38438 5.10535L2.75579 5.28733L3.12582 4.75495L2.50864 4.53839L3.12582 4.32183L2.75579 3.78944L3.38438 3.97143L3.40284 3.32656L3.80273 3.83758L4.20263 3.32656L4.22109 3.97143L4.84968 3.78944L4.47965 4.32183L5.09683 4.53839L4.47965 4.75495L4.84968 5.28733L4.22109 5.10535L4.20263 5.75021L3.80273 5.23919Z" fill="#F7FCFF"/>
<path fill-rule="evenodd" clip-rule="evenodd" d="M3.71795 5.08899C5.08799 5.09455 5.81845 4.30518 5.81845 4.30518C5.96296 5.2059 4.84726 5.80518 3.7313 5.80518C2.61535 5.80518 1.93969 4.98829 1.52344 4.30518C1.52344 4.30518 2.34791 5.08343 3.71795 5.08899Z" fill="#F9FAFA"/>
</g>
</svg>
