<svg width="31" height="25" viewBox="0 0 31 25" fill="none" xmlns="http://www.w3.org/2000/svg">
<path d="M20.1767 17.6103L15.0649 12.4985L9.95312 17.6103" stroke="#718096" stroke-width="2" stroke-linecap="round" stroke-linejoin="round"/>
<path d="M15.0645 12.4985V24.0001" stroke="#718096" stroke-width="2" stroke-linecap="round" stroke-linejoin="round"/>
<path d="M25.7863 20.6646C27.0328 19.985 28.0174 18.9098 28.5849 17.6085C29.1523 16.3072 29.2703 14.854 28.9201 13.4782C28.57 12.1025 27.7716 10.8825 26.6511 10.0108C25.5305 9.13919 24.1516 8.66551 22.732 8.66458H21.1218C20.735 7.1684 20.014 5.77939 19.0131 4.60196C18.0122 3.42452 16.7574 2.48932 15.343 1.86664C13.9286 1.24397 12.3915 0.950034 10.8472 1.00693C9.30288 1.06383 7.79155 1.47009 6.42684 2.19515C5.06212 2.92022 3.87954 3.94523 2.96799 5.19312C2.05644 6.44102 1.43964 7.87932 1.16398 9.3999C0.888308 10.9205 0.960941 12.4838 1.37641 13.9722C1.79189 15.4607 2.53939 16.8356 3.56272 17.9936" stroke="#718096" stroke-width="2" stroke-linecap="round" stroke-linejoin="round"/>
<path d="M20.1767 17.6103L15.0649 12.4985L9.95312 17.6103" stroke="#718096" stroke-width="2" stroke-linecap="round" stroke-linejoin="round"/>
</svg>
