<svg width="60" height="66" viewBox="0 0 60 66" fill="none" xmlns="http://www.w3.org/2000/svg">
<path d="M55.5271 23.6079H53.9422V15.9611C53.9422 15.9134 53.9347 15.8654 53.9291 15.8167C53.9266 15.5133 53.8293 15.2152 53.6214 14.9789L40.8957 0.442615C40.8917 0.438884 40.888 0.43756 40.8855 0.433587C40.8096 0.348844 40.7213 0.278305 40.6275 0.217395C40.5999 0.198858 40.572 0.18333 40.543 0.166959C40.4621 0.123022 40.376 0.0860674 40.2877 0.0594648C40.2636 0.0532053 40.2421 0.0433347 40.2182 0.0370752C40.1221 0.0142041 40.0223 0 39.9213 0H8.64749C7.2195 0 6.05933 1.16149 6.05933 2.58828V23.6072H4.47473C2.43186 23.6072 0.775391 25.263 0.775391 27.3066V46.5438C0.775391 48.5855 2.43186 50.243 4.47473 50.243H6.05933V63.4118C6.05933 64.8387 7.2195 66 8.64749 66H51.3533C52.7801 66 53.9415 64.8387 53.9415 63.4118V50.2432H55.5263C57.5686 50.2432 59.2253 48.5863 59.2253 46.5439V27.3073C59.2254 25.2631 57.5698 23.6079 55.5271 23.6079ZM8.64749 2.58828H38.6271V15.8301C38.6271 16.5452 39.207 17.1243 39.9213 17.1243H51.3534V23.6078H8.64749V2.58828ZM34.8673 37.877C32.3245 36.9912 30.6652 35.5845 30.6652 33.3577C30.6652 30.7458 32.8452 28.7477 36.4572 28.7477C38.1822 28.7477 39.4548 29.1105 40.3623 29.5197L39.5906 32.3124C38.9778 32.0179 37.8878 31.5857 36.3889 31.5857C34.89 31.5857 34.1634 32.2672 34.1634 33.0622C34.1634 34.039 35.0266 34.4701 37.0018 35.2194C39.7038 36.2191 40.9757 37.6269 40.9757 39.7841C40.9757 42.3508 38.9998 44.531 34.7984 44.531C33.0501 44.531 31.3243 44.0774 30.4612 43.5997L31.1645 40.7384C32.096 41.2149 33.5271 41.6926 35.0027 41.6926C36.5938 41.6926 37.4328 41.0342 37.4328 40.0346C37.4334 39.0815 36.7068 38.5353 34.8673 37.877ZM29.01 41.3966V44.3045H19.4476V28.9959H22.9236V41.3966H29.01ZM8.34415 44.3045H4.39275L8.82107 36.5581L4.55104 28.9953H8.52592L9.86508 31.7892C10.3194 32.7204 10.6603 33.4689 11.024 34.3333H11.0682C11.4326 33.3565 11.7275 32.6752 12.1125 31.7892L13.4072 28.9953H17.3587L13.0436 36.4665L17.5865 44.3032H13.5898L12.2037 41.5319C11.6369 40.466 11.2732 39.6703 10.8416 38.7845H10.7964C10.478 39.6703 10.0928 40.466 9.61542 41.5319L8.34415 44.3045ZM51.3534 62.711H8.64749V50.2432H51.3533V62.711H51.3534ZM51.3768 44.3045L49.9911 41.5333C49.4235 40.4664 49.0602 39.6717 48.6285 38.7857H48.5845C48.266 39.6717 47.8793 40.4664 47.4016 41.5333L46.1315 44.3045H42.1789L46.6072 36.5581L42.3374 28.9953H46.3122L47.653 31.7892C48.1068 32.7204 48.4467 33.4689 48.8108 34.3333H48.8562C49.2188 33.3565 49.5133 32.6752 49.8999 31.7892L51.1942 28.9953H55.1467L50.8314 36.4665L55.3735 44.3032H51.3768V44.3045Z" fill="#718096"/>
</svg>
